<svg id="Layer_1" data-name="Layer 1" xmlns="http://www.w3.org/2000/svg" xmlns:xlink="http://www.w3.org/1999/xlink" viewBox="0 0 500 500"><defs><linearGradient id="linear-gradient" x1="371.0134" y1="1861.504" x2="786.2224" y2="1446.2953" gradientTransform="translate(-257.5 -1404)" gradientUnits="userSpaceOnUse"><stop offset="0" stop-color="#20bcc5"/><stop offset="1" stop-color="#00b69f"/></linearGradient><linearGradient id="linear-gradient-2" x1="415.704" y1="1755.4917" x2="619.5114" y2="1551.6843" xlink:href="#linear-gradient"/><linearGradient id="linear-gradient-3" x1="686.5821" y1="1558.8312" x2="739.4736" y2="1505.94" xlink:href="#linear-gradient"/><linearGradient id="linear-gradient-4" x1="670.4783" y1="1817.4621" x2="754.3471" y2="1733.5917" xlink:href="#linear-gradient"/><linearGradient id="linear-gradient-5" x1="528.3607" y1="1717.9408" x2="656.5889" y2="1589.7129" xlink:href="#linear-gradient"/></defs><path d="M493.0805,6.6534H249.5463v.061A241.4975,241.4975,0,0,0,77.802,77.99C32.03,123.8573,6.9107,184.9328,6.9107,249.952A243.17,243.17,0,0,0,250.0174,493.3466c1.5531,0,3.1149-.1919,4.6069-.1919h238.465V432.2275H249.5463v.0436A182.2407,182.2407,0,1,1,250.0087,67.79c1.4309,0,2.8531-.1832,4.223-.1832H493.0805Z" fill="url(#linear-gradient)"/><path d="M327.3739,113.0469H249.8953a31.5352,31.5352,0,0,0-5.0867.3664c-72.9591,2.6961-131.4869,62.9514-131.4869,136.6172,0,75.3759,61.2675,136.7219,136.5823,136.7219h75.62l61.2675-60.9359H249.8866a75.7729,75.7729,0,0,1,0-151.5458c1.5095,0,3.0015-.2966,4.4586-.2966h133.52Z" fill="url(#linear-gradient-2)"/><polygon points="493.081 113.047 387.725 113.047 448.225 173.974 493.081 173.974 493.081 113.047" fill="url(#linear-gradient-3)"/><polygon points="493.081 325.825 447.562 325.825 386.277 386.761 493.081 386.761 493.081 325.825" fill="url(#linear-gradient-4)"/><path d="M219.4535,249.9084a30.4446,30.4446,0,0,0,30.4418,30.4592H432.3366l30.6773-30.5029L432.8164,219.44h-182.93A30.4391,30.4391,0,0,0,219.4535,249.9084Z" fill="url(#linear-gradient-5)"/></svg>