<svg width="257" height="75" viewBox="0 0 257 75" fill="none" xmlns="http://www.w3.org/2000/svg">
<path d="M126.796 50.861C122.876 54.8072 117.64 56.7687 112.474 56.7687C99.236 56.7687 92.3171 47.4918 92.271 36.8764C92.1556 26.3533 99.0054 16.5226 112.474 16.5226C117.64 16.5226 122.853 18.4841 126.796 22.4303L124.721 24.2303C121.353 20.861 116.925 19.2226 112.474 19.2226C101.012 19.2226 95.1308 27.3226 95.1769 36.761C95.2922 45.9687 101.127 53.9533 112.474 53.9533C116.902 53.9533 121.4 52.2687 124.767 48.9456L126.796 50.861Z" fill="white"/>
<path d="M134.591 35.1686H157.608V37.9379H134.591V53.3532H159.407V56.2609H131.547V16.984H159.984V19.8917H134.614V35.1686H134.591Z" fill="white"/>
<path d="M190.314 16.984H193.542V17.0763L180.212 36.1378L194.673 56.2609V56.3071H191.075L178.39 38.3071L165.705 56.3071H162.084V56.2609L176.522 36.1378L163.191 17.0763V16.984H166.49L178.39 33.784L190.314 16.984Z" fill="white"/>
<path d="M207.957 56.3301V16.984H210.863V56.284H207.957V56.3301Z" fill="white"/>
<path d="M256.019 36.6683C255.973 47.0067 249.4 56.9529 236.208 56.9529C223.016 56.9529 216.397 46.9375 216.397 36.5529C216.397 25.9837 222.97 16.3145 236.208 16.3145C249.446 16.3145 256.065 26.0529 256.019 36.6683ZM219.372 36.6221C219.418 45.5067 225.046 54.1606 236.208 54.1606C247.44 54.1606 253.113 45.5067 253.113 36.6221C253.113 27.5068 247.509 19.1298 236.208 19.1298C224.93 19.1298 219.303 27.3452 219.372 36.6221Z" fill="white"/>
<path d="M196.979 34.4991C198.179 34.4991 199.124 35.4684 199.124 36.6453C199.124 37.8453 198.156 38.7915 196.979 38.7915C195.803 38.7915 194.834 37.8222 194.834 36.6453C194.834 35.4453 195.78 34.4991 196.979 34.4991Z" fill="white"/>
<path fill-rule="evenodd" clip-rule="evenodd" d="M32.3096 37.7993C32.3096 40.3378 34.3852 42.4147 36.9222 42.4147H64.5978L69.2104 37.7993L64.5978 33.184H36.9222C34.3852 33.184 32.3096 35.2609 32.3096 37.7993Z" fill="white"/>
<path fill-rule="evenodd" clip-rule="evenodd" d="M36.9213 17.03C25.459 17.03 16.1646 26.33 16.1646 37.7992C16.1646 49.2685 25.459 58.5685 36.9213 58.5685H48.4528L57.678 49.3377H36.9213C30.5559 49.3377 25.3898 44.1685 25.3898 37.7992C25.3898 31.43 30.5559 26.2608 36.9213 26.2608H57.678L48.4528 17.03H36.9213Z" fill="white"/>
<path fill-rule="evenodd" clip-rule="evenodd" d="M36.9204 0.876221C16.5327 0.876221 0.0195312 17.3993 0.0195312 37.7993C0.0195312 58.1993 16.5327 74.7223 36.9204 74.7223H73.8212V65.4916H36.9204C21.6296 65.4916 9.24474 53.0993 9.24474 37.7993C9.24474 22.4993 21.6296 10.107 36.9204 10.107H73.8212V0.876221H36.9204Z" fill="white"/>
<path fill-rule="evenodd" clip-rule="evenodd" d="M66.9025 26.2608H73.8214V17.03H57.6772L66.9025 26.2608Z" fill="white"/>
<path fill-rule="evenodd" clip-rule="evenodd" d="M57.6772 58.5685H73.8214V49.3378H66.9025L57.6772 58.5685Z" fill="white"/>
</svg>
